<svg width="40" height="41" viewBox="0 0 40 41" fill="none" xmlns="http://www.w3.org/2000/svg">
<path d="M28 36.5V4.5H4V34.5C4 35.0304 4.21071 35.5391 4.58579 35.9142C4.96086 36.2893 5.46957 36.5 6 36.5H28ZM34 40.5H6C4.4087 40.5 2.88258 39.8679 1.75736 38.7426C0.632141 37.6174 0 36.0913 0 34.5V2.5C0 1.96957 0.210714 1.46086 0.585786 1.08579C0.960859 0.710714 1.46957 0.5 2 0.5H30C30.5304 0.5 31.0391 0.710714 31.4142 1.08579C31.7893 1.46086 32 1.96957 32 2.5V16.5H40V34.5C40 36.0913 39.3679 37.6174 38.2426 38.7426C37.1174 39.8679 35.5913 40.5 34 40.5ZM32 20.5V34.5C32 35.0304 32.2107 35.5391 32.5858 35.9142C32.9609 36.2893 33.4696 36.5 34 36.5C34.5304 36.5 35.0391 36.2893 35.4142 35.9142C35.7893 35.5391 36 35.0304 36 34.5V20.5H32ZM8 8.5H20V20.5H8V8.5ZM12 12.5V16.5H16V12.5H12ZM8 22.5H24V26.5H8V22.5ZM8 28.5H24V32.5H8V28.5Z" fill="white"/>
</svg>
