<svg width="20" height="19" viewBox="0 0 20 19" fill="none" xmlns="http://www.w3.org/2000/svg">
<path d="M10.8843 0.4905C10.5383 -0.1635 9.46227 -0.1635 9.11627 0.4905L0.116271 17.4905C0.0355601 17.6429 -0.00436348 17.8136 0.0003781 17.986C0.00511968 18.1584 0.0543653 18.3266 0.143332 18.4744C0.232299 18.6221 0.357962 18.7443 0.508116 18.8292C0.65827 18.914 0.827811 18.9585 1.00027 18.9585H19.0003C19.1727 18.9589 19.3423 18.9145 19.4925 18.8298C19.6428 18.7451 19.7685 18.6229 19.8574 18.4752C19.9463 18.3274 19.9955 18.1591 20 17.9867C20.0045 17.8144 19.9643 17.6437 19.8833 17.4915L10.8843 0.4905ZM11.0003 15.9585H9.00027V13.9585H11.0003V15.9585ZM9.00027 11.9585V6.9585H11.0003L11.0013 11.9585H9.00027Z" fill="#FF0000"/>
</svg>
