<svg width="22" height="14" viewBox="0 0 22 14" fill="none" xmlns="http://www.w3.org/2000/svg">
<path d="M1 1.5329L2.28 0.601562L19 12.8629L17.73 13.8016L14.65 11.5429C13.5 11.8216 12.28 11.9682 11 11.9682C6 11.9682 1.73 9.68756 0 6.46823C0.69 5.17756 1.79 4.0409 3.19 3.1389L1 1.5329ZM11 4.26823C11.7956 4.26823 12.5587 4.50001 13.1213 4.91259C13.6839 5.32517 14 5.88475 14 6.46823C14.0005 6.71798 13.943 6.96597 13.83 7.20156L10 4.3929C10.3213 4.31002 10.6594 4.26786 11 4.26823ZM11 0.968229C16 0.968229 20.27 3.2489 22 6.46823C21.1834 7.98838 19.7966 9.30793 18 10.2742L16.58 9.22556C17.9629 8.52409 19.0783 7.57491 19.82 6.46823C19.0117 5.25813 17.7565 4.23863 16.1974 3.52562C14.6382 2.81262 12.8375 2.43472 11 2.4349C9.91 2.4349 8.84 2.5669 7.84 2.80156L6.3 1.67956C7.74 1.2249 9.33 0.968229 11 0.968229ZM2.18 6.46823C2.98835 7.67833 4.24345 8.69783 5.80264 9.41084C7.36182 10.1238 9.16251 10.5017 11 10.5016C11.69 10.5016 12.37 10.4502 13 10.3476L10.72 8.66823C10.0242 8.61353 9.37482 8.3858 8.87997 8.02291C8.38512 7.66002 8.07458 7.18384 8 6.67356L4.6 4.1729C3.61 4.79623 2.78 5.57356 2.18 6.46823Z" fill="#5B5B5B"/>
</svg>
